<?xml version="1.0" standalone="no"?>
<!DOCTYPE svg PUBLIC "-//W3C//DTD SVG 1.1//EN" "http://www.w3.org/Graphics/SVG/1.1/DTD/svg11.dtd">
<svg version="1.1" width="1200" height="358" onload="init(evt)" viewBox="0 0 1200 358" xmlns="http://www.w3.org/2000/svg" xmlns:xlink="http://www.w3.org/1999/xlink">
<!-- Flame graph stack visualization. See https://github.com/brendangregg/FlameGraph for latest version, and http://www.brendangregg.com/flamegraphs.html for examples. -->
<!-- NOTES:  -->
<defs>
	<linearGradient id="background" y1="0" y2="1" x1="0" x2="0" >
		<stop stop-color="#eeeeee" offset="5%" />
		<stop stop-color="#eeeeb0" offset="95%" />
	</linearGradient>
</defs>
<style type="text/css">
	text { font-family:Verdana; font-size:12px; fill:rgb(0,0,0); }
	#search, #ignorecase { opacity:0.1; cursor:pointer; }
	#search:hover, #search.show, #ignorecase:hover, #ignorecase.show { opacity:1; }
	#subtitle { text-anchor:middle; font-color:rgb(160,160,160); }
	#title { text-anchor:middle; font-size:17px}
	#unzoom { cursor:pointer; }
	#frames > *:hover { stroke:black; stroke-width:0.5; cursor:pointer; }
	.hide { display:none; }
	.parent { opacity:0.5; }
</style>
<script type="text/ecmascript">
<![CDATA[
	"use strict";
	var details, searchbtn, unzoombtn, matchedtxt, svg, searching, currentSearchTerm, ignorecase, ignorecaseBtn;
	function init(evt) {
		details = document.getElementById("details").firstChild;
		searchbtn = document.getElementById("search");
		ignorecaseBtn = document.getElementById("ignorecase");
		unzoombtn = document.getElementById("unzoom");
		matchedtxt = document.getElementById("matched");
		svg = document.getElementsByTagName("svg")[0];
		searching = 0;
		currentSearchTerm = null;

		// use GET parameters to restore a flamegraphs state.
		var params = get_params();
		if (params.x && params.y)
			zoom(find_group(document.querySelector('[x="' + params.x + '"][y="' + params.y + '"]')));
                if (params.s) search(params.s);
	}

	// event listeners
	window.addEventListener("click", function(e) {
		var target = find_group(e.target);
		if (target) {
			if (target.nodeName == "a") {
				if (e.ctrlKey === false) return;
				e.preventDefault();
			}
			if (target.classList.contains("parent")) unzoom(true);
			zoom(target);
			if (!document.querySelector('.parent')) {
				// we have basically done a clearzoom so clear the url
				var params = get_params();
				if (params.x) delete params.x;
				if (params.y) delete params.y;
				history.replaceState(null, null, parse_params(params));
				unzoombtn.classList.add("hide");
				return;
			}

			// set parameters for zoom state
			var el = target.querySelector("rect");
			if (el && el.attributes && el.attributes.y && el.attributes._orig_x) {
				var params = get_params()
				params.x = el.attributes._orig_x.value;
				params.y = el.attributes.y.value;
				history.replaceState(null, null, parse_params(params));
			}
		}
		else if (e.target.id == "unzoom") clearzoom();
		else if (e.target.id == "search") search_prompt();
		else if (e.target.id == "ignorecase") toggle_ignorecase();
	}, false)

	// mouse-over for info
	// show
	window.addEventListener("mouseover", function(e) {
		var target = find_group(e.target);
		if (target) details.nodeValue = "Function: " + g_to_text(target);
	}, false)

	// clear
	window.addEventListener("mouseout", function(e) {
		var target = find_group(e.target);
		if (target) details.nodeValue = ' ';
	}, false)

	// ctrl-F for search
	// ctrl-I to toggle case-sensitive search
	window.addEventListener("keydown",function (e) {
		if (e.keyCode === 114 || (e.ctrlKey && e.keyCode === 70)) {
			e.preventDefault();
			search_prompt();
		}
		else if (e.ctrlKey && e.keyCode === 73) {
			e.preventDefault();
			toggle_ignorecase();
		}
	}, false)

	// functions
	function get_params() {
		var params = {};
		var paramsarr = window.location.search.substr(1).split('&');
		for (var i = 0; i < paramsarr.length; ++i) {
			var tmp = paramsarr[i].split("=");
			if (!tmp[0] || !tmp[1]) continue;
			params[tmp[0]]  = decodeURIComponent(tmp[1]);
		}
		return params;
	}
	function parse_params(params) {
		var uri = "?";
		for (var key in params) {
			uri += key + '=' + encodeURIComponent(params[key]) + '&';
		}
		if (uri.slice(-1) == "&")
			uri = uri.substring(0, uri.length - 1);
		if (uri == '?')
			uri = window.location.href.split('?')[0];
		return uri;
	}
	function find_child(node, selector) {
		var children = node.querySelectorAll(selector);
		if (children.length) return children[0];
	}
	function find_group(node) {
		var parent = node.parentElement;
		if (!parent) return;
		if (parent.id == "frames") return node;
		return find_group(parent);
	}
	function orig_save(e, attr, val) {
		if (e.attributes["_orig_" + attr] != undefined) return;
		if (e.attributes[attr] == undefined) return;
		if (val == undefined) val = e.attributes[attr].value;
		e.setAttribute("_orig_" + attr, val);
	}
	function orig_load(e, attr) {
		if (e.attributes["_orig_"+attr] == undefined) return;
		e.attributes[attr].value = e.attributes["_orig_" + attr].value;
		e.removeAttribute("_orig_"+attr);
	}
	function g_to_text(e) {
		var text = find_child(e, "title").firstChild.nodeValue;
		return (text)
	}
	function g_to_func(e) {
		var func = g_to_text(e);
		// if there's any manipulation we want to do to the function
		// name before it's searched, do it here before returning.
		return (func);
	}
	function update_text(e) {
		var r = find_child(e, "rect");
		var t = find_child(e, "text");
		var w = parseFloat(r.attributes.width.value) -3;
		var txt = find_child(e, "title").textContent.replace(/\([^(]*\)$/,"");
		t.attributes.x.value = parseFloat(r.attributes.x.value) + 3;

		// Smaller than this size won't fit anything
		if (w < 2 * 12 * 0.59) {
			t.textContent = "";
			return;
		}

		t.textContent = txt;
		var sl = t.getSubStringLength(0, txt.length);
		// check if only whitespace or if we can fit the entire string into width w
		if (/^ *$/.test(txt) || sl < w)
			return;

		// this isn't perfect, but gives a good starting point
		// and avoids calling getSubStringLength too often
		var start = Math.floor((w/sl) * txt.length);
		for (var x = start; x > 0; x = x-2) {
			if (t.getSubStringLength(0, x + 2) <= w) {
				t.textContent = txt.substring(0, x) + "..";
				return;
			}
		}
		t.textContent = "";
	}

	// zoom
	function zoom_reset(e) {
		if (e.attributes != undefined) {
			orig_load(e, "x");
			orig_load(e, "width");
		}
		if (e.childNodes == undefined) return;
		for (var i = 0, c = e.childNodes; i < c.length; i++) {
			zoom_reset(c[i]);
		}
	}
	function zoom_child(e, x, ratio) {
		if (e.attributes != undefined) {
			if (e.attributes.x != undefined) {
				orig_save(e, "x");
				e.attributes.x.value = (parseFloat(e.attributes.x.value) - x - 10) * ratio + 10;
				if (e.tagName == "text")
					e.attributes.x.value = find_child(e.parentNode, "rect[x]").attributes.x.value + 3;
			}
			if (e.attributes.width != undefined) {
				orig_save(e, "width");
				e.attributes.width.value = parseFloat(e.attributes.width.value) * ratio;
			}
		}

		if (e.childNodes == undefined) return;
		for (var i = 0, c = e.childNodes; i < c.length; i++) {
			zoom_child(c[i], x - 10, ratio);
		}
	}
	function zoom_parent(e) {
		if (e.attributes) {
			if (e.attributes.x != undefined) {
				orig_save(e, "x");
				e.attributes.x.value = 10;
			}
			if (e.attributes.width != undefined) {
				orig_save(e, "width");
				e.attributes.width.value = parseInt(svg.width.baseVal.value) - (10 * 2);
			}
		}
		if (e.childNodes == undefined) return;
		for (var i = 0, c = e.childNodes; i < c.length; i++) {
			zoom_parent(c[i]);
		}
	}
	function zoom(node) {
		var attr = find_child(node, "rect").attributes;
		var width = parseFloat(attr.width.value);
		var xmin = parseFloat(attr.x.value);
		var xmax = parseFloat(xmin + width);
		var ymin = parseFloat(attr.y.value);
		var ratio = (svg.width.baseVal.value - 2 * 10) / width;

		// XXX: Workaround for JavaScript float issues (fix me)
		var fudge = 0.0001;

		unzoombtn.classList.remove("hide");

		var el = document.getElementById("frames").children;
		for (var i = 0; i < el.length; i++) {
			var e = el[i];
			var a = find_child(e, "rect").attributes;
			var ex = parseFloat(a.x.value);
			var ew = parseFloat(a.width.value);
			var upstack;
			// Is it an ancestor
			if (0 == 0) {
				upstack = parseFloat(a.y.value) > ymin;
			} else {
				upstack = parseFloat(a.y.value) < ymin;
			}
			if (upstack) {
				// Direct ancestor
				if (ex <= xmin && (ex+ew+fudge) >= xmax) {
					e.classList.add("parent");
					zoom_parent(e);
					update_text(e);
				}
				// not in current path
				else
					e.classList.add("hide");
			}
			// Children maybe
			else {
				// no common path
				if (ex < xmin || ex + fudge >= xmax) {
					e.classList.add("hide");
				}
				else {
					zoom_child(e, xmin, ratio);
					update_text(e);
				}
			}
		}
		search();
	}
	function unzoom(dont_update_text) {
		unzoombtn.classList.add("hide");
		var el = document.getElementById("frames").children;
		for(var i = 0; i < el.length; i++) {
			el[i].classList.remove("parent");
			el[i].classList.remove("hide");
			zoom_reset(el[i]);
			if(!dont_update_text) update_text(el[i]);
		}
		search();
	}
	function clearzoom() {
		unzoom();

		// remove zoom state
		var params = get_params();
		if (params.x) delete params.x;
		if (params.y) delete params.y;
		history.replaceState(null, null, parse_params(params));
	}

	// search
	function toggle_ignorecase() {
		ignorecase = !ignorecase;
		if (ignorecase) {
			ignorecaseBtn.classList.add("show");
		} else {
			ignorecaseBtn.classList.remove("show");
		}
		reset_search();
		search();
	}
	function reset_search() {
		var el = document.querySelectorAll("#frames rect");
		for (var i = 0; i < el.length; i++) {
			orig_load(el[i], "fill")
		}
		var params = get_params();
		delete params.s;
		history.replaceState(null, null, parse_params(params));
	}
	function search_prompt() {
		if (!searching) {
			var term = prompt("Enter a search term (regexp " +
			    "allowed, eg: ^ext4_)"
			    + (ignorecase ? ", ignoring case" : "")
			    + "\nPress Ctrl-i to toggle case sensitivity", "");
			if (term != null) search(term);
		} else {
			reset_search();
			searching = 0;
			currentSearchTerm = null;
			searchbtn.classList.remove("show");
			searchbtn.firstChild.nodeValue = "Search"
			matchedtxt.classList.add("hide");
			matchedtxt.firstChild.nodeValue = ""
		}
	}
	function search(term) {
		if (term) currentSearchTerm = term;

		var re = new RegExp(currentSearchTerm, ignorecase ? 'i' : '');
		var el = document.getElementById("frames").children;
		var matches = new Object();
		var maxwidth = 0;
		for (var i = 0; i < el.length; i++) {
			var e = el[i];
			var func = g_to_func(e);
			var rect = find_child(e, "rect");
			if (func == null || rect == null)
				continue;

			// Save max width. Only works as we have a root frame
			var w = parseFloat(rect.attributes.width.value);
			if (w > maxwidth)
				maxwidth = w;

			if (func.match(re)) {
				// highlight
				var x = parseFloat(rect.attributes.x.value);
				orig_save(rect, "fill");
				rect.attributes.fill.value = "rgb(230,0,230)";

				// remember matches
				if (matches[x] == undefined) {
					matches[x] = w;
				} else {
					if (w > matches[x]) {
						// overwrite with parent
						matches[x] = w;
					}
				}
				searching = 1;
			}
		}
		if (!searching)
			return;
		var params = get_params();
		params.s = currentSearchTerm;
		history.replaceState(null, null, parse_params(params));

		searchbtn.classList.add("show");
		searchbtn.firstChild.nodeValue = "Reset Search";

		// calculate percent matched, excluding vertical overlap
		var count = 0;
		var lastx = -1;
		var lastw = 0;
		var keys = Array();
		for (k in matches) {
			if (matches.hasOwnProperty(k))
				keys.push(k);
		}
		// sort the matched frames by their x location
		// ascending, then width descending
		keys.sort(function(a, b){
			return a - b;
		});
		// Step through frames saving only the biggest bottom-up frames
		// thanks to the sort order. This relies on the tree property
		// where children are always smaller than their parents.
		var fudge = 0.0001;	// JavaScript floating point
		for (var k in keys) {
			var x = parseFloat(keys[k]);
			var w = matches[keys[k]];
			if (x >= lastx + lastw - fudge) {
				count += w;
				lastx = x;
				lastw = w;
			}
		}
		// display matched percent
		matchedtxt.classList.remove("hide");
		var pct = 100 * count / maxwidth;
		if (pct != 100) pct = pct.toFixed(1)
		matchedtxt.firstChild.nodeValue = "Matched: " + pct + "%";
	}
]]>
</script>
<rect x="0.0" y="0" width="1200.0" height="358.0" fill="url(#background)"  />
<text id="title" x="600.00" y="24" >Flame Graph</text>
<text id="details" x="10.00" y="341" > </text>
<text id="unzoom" x="10.00" y="24" class="hide">Reset Zoom</text>
<text id="search" x="1090.00" y="24" >Search</text>
<text id="ignorecase" x="1174.00" y="24" >ic</text>
<text id="matched" x="1090.00" y="341" > </text>
<g id="frames">
<g >
<title>runtime.mPark (2 samples, 0.04%)</title><rect x="1186.8" y="229" width="0.4" height="15.0" fill="rgb(233,28,21)" rx="2" ry="2" />
<text  x="1189.78" y="239.5" ></text>
</g>
<g >
<title>runtime.signalM (1 samples, 0.02%)</title><rect x="1189.1" y="213" width="0.2" height="15.0" fill="rgb(243,79,43)" rx="2" ry="2" />
<text  x="1192.08" y="223.5" ></text>
</g>
<g >
<title>runtime.growslice (4 samples, 0.08%)</title><rect x="1044.5" y="213" width="0.9" height="15.0" fill="rgb(218,180,29)" rx="2" ry="2" />
<text  x="1047.49" y="223.5" ></text>
</g>
<g >
<title>main.findShortestPath (64 samples, 1.25%)</title><rect x="1033.7" y="245" width="14.7" height="15.0" fill="rgb(222,153,18)" rx="2" ry="2" />
<text  x="1036.66" y="255.5" ></text>
</g>
<g >
<title>runtime.heapBitsSetType (1 samples, 0.02%)</title><rect x="1044.7" y="181" width="0.2" height="15.0" fill="rgb(243,19,25)" rx="2" ry="2" />
<text  x="1047.72" y="191.5" ></text>
</g>
<g >
<title>runtime.growWork_faststr (3 samples, 0.06%)</title><rect x="1047.0" y="213" width="0.7" height="15.0" fill="rgb(252,19,19)" rx="2" ry="2" />
<text  x="1050.02" y="223.5" ></text>
</g>
<g >
<title>runtime.sysUsedOS (5 samples, 0.10%)</title><rect x="1187.7" y="261" width="1.1" height="15.0" fill="rgb(212,191,52)" rx="2" ry="2" />
<text  x="1190.70" y="271.5" ></text>
</g>
<g >
<title>runtime.pthread_cond_wait (2 samples, 0.04%)</title><rect x="1186.8" y="181" width="0.4" height="15.0" fill="rgb(215,91,24)" rx="2" ry="2" />
<text  x="1189.78" y="191.5" ></text>
</g>
<g >
<title>runtime.startTheWorldWithSema (2 samples, 0.04%)</title><rect x="1189.3" y="261" width="0.5" height="15.0" fill="rgb(229,102,1)" rx="2" ry="2" />
<text  x="1192.31" y="271.5" ></text>
</g>
<g >
<title>fmt.Fprintln (7 samples, 0.14%)</title><rect x="1042.9" y="213" width="1.6" height="15.0" fill="rgb(234,27,6)" rx="2" ry="2" />
<text  x="1045.87" y="223.5" ></text>
</g>
<g >
<title>runtime.hashGrow (1 samples, 0.02%)</title><rect x="1047.7" y="213" width="0.2" height="15.0" fill="rgb(223,221,51)" rx="2" ry="2" />
<text  x="1050.71" y="223.5" ></text>
</g>
<g >
<title>runtime.gcMarkDone.func1 (1 samples, 0.02%)</title><rect x="1189.1" y="277" width="0.2" height="15.0" fill="rgb(208,211,35)" rx="2" ry="2" />
<text  x="1192.08" y="287.5" ></text>
</g>
<g >
<title>runtime.memequal (3 samples, 0.06%)</title><rect x="968.5" y="213" width="0.7" height="15.0" fill="rgb(208,187,31)" rx="2" ry="2" />
<text  x="971.51" y="223.5" ></text>
</g>
<g >
<title>runtime.pthread_kill (1 samples, 0.02%)</title><rect x="1188.8" y="181" width="0.3" height="15.0" fill="rgb(232,160,27)" rx="2" ry="2" />
<text  x="1191.85" y="191.5" ></text>
</g>
<g >
<title>runtime.mmap (1 samples, 0.02%)</title><rect x="1189.8" y="229" width="0.2" height="15.0" fill="rgb(253,224,23)" rx="2" ry="2" />
<text  x="1192.77" y="239.5" ></text>
</g>
<g >
<title>aeshashbody (1 samples, 0.02%)</title><rect x="1046.3" y="213" width="0.3" height="15.0" fill="rgb(214,47,10)" rx="2" ry="2" />
<text  x="1049.33" y="223.5" ></text>
</g>
<g >
<title>runtime.read (1 samples, 0.02%)</title><rect x="1187.2" y="213" width="0.3" height="15.0" fill="rgb(210,10,13)" rx="2" ry="2" />
<text  x="1190.24" y="223.5" ></text>
</g>
<g >
<title>runtime.lockWithRank (1 samples, 0.02%)</title><rect x="1186.5" y="229" width="0.3" height="15.0" fill="rgb(241,174,2)" rx="2" ry="2" />
<text  x="1189.55" y="239.5" ></text>
</g>
<g >
<title>runtime.mcall (5 samples, 0.10%)</title><rect x="1186.5" y="293" width="1.2" height="15.0" fill="rgb(214,228,11)" rx="2" ry="2" />
<text  x="1189.55" y="303.5" ></text>
</g>
<g >
<title>runtime.preemptall (1 samples, 0.02%)</title><rect x="1189.1" y="245" width="0.2" height="15.0" fill="rgb(205,149,14)" rx="2" ry="2" />
<text  x="1192.08" y="255.5" ></text>
</g>
<g >
<title>runtime.systemstack (2 samples, 0.04%)</title><rect x="10.2" y="277" width="0.5" height="15.0" fill="rgb(211,14,45)" rx="2" ry="2" />
<text  x="13.23" y="287.5" ></text>
</g>
<g >
<title>runtime.mallocgc (1 samples, 0.02%)</title><rect x="1047.9" y="197" width="0.3" height="15.0" fill="rgb(205,211,50)" rx="2" ry="2" />
<text  x="1050.94" y="207.5" ></text>
</g>
<g >
<title>runtime.newarray (1 samples, 0.02%)</title><rect x="1047.7" y="181" width="0.2" height="15.0" fill="rgb(234,61,51)" rx="2" ry="2" />
<text  x="1050.71" y="191.5" ></text>
</g>
<g >
<title>syscall.Write (7 samples, 0.14%)</title><rect x="1042.9" y="181" width="1.6" height="15.0" fill="rgb(218,163,16)" rx="2" ry="2" />
<text  x="1045.87" y="191.5" ></text>
</g>
<g >
<title>runtime.pthread_kill (1 samples, 0.02%)</title><rect x="1189.1" y="197" width="0.2" height="15.0" fill="rgb(244,39,23)" rx="2" ry="2" />
<text  x="1192.08" y="207.5" ></text>
</g>
<g >
<title>runtime.preemptone (1 samples, 0.02%)</title><rect x="1189.1" y="229" width="0.2" height="15.0" fill="rgb(218,212,13)" rx="2" ry="2" />
<text  x="1192.08" y="239.5" ></text>
</g>
<g >
<title>runtime.schedule (5 samples, 0.10%)</title><rect x="1186.5" y="261" width="1.2" height="15.0" fill="rgb(242,33,18)" rx="2" ry="2" />
<text  x="1189.55" y="271.5" ></text>
</g>
<g >
<title>runtime.systemstack (1 samples, 0.02%)</title><rect x="1047.7" y="117" width="0.2" height="15.0" fill="rgb(228,13,24)" rx="2" ry="2" />
<text  x="1050.71" y="127.5" ></text>
</g>
<g >
<title>main.findNeighbors (4 samples, 0.08%)</title><rect x="1044.5" y="229" width="0.9" height="15.0" fill="rgb(214,39,5)" rx="2" ry="2" />
<text  x="1047.49" y="239.5" ></text>
</g>
<g >
<title>runtime.typedmemmove (2 samples, 0.04%)</title><rect x="1047.2" y="181" width="0.5" height="15.0" fill="rgb(208,73,25)" rx="2" ry="2" />
<text  x="1050.25" y="191.5" ></text>
</g>
<g >
<title>runtime.mallocgc (2 samples, 0.04%)</title><rect x="1044.5" y="197" width="0.4" height="15.0" fill="rgb(212,6,36)" rx="2" ry="2" />
<text  x="1047.49" y="207.5" ></text>
</g>
<g >
<title>runtime.mapaccess1_faststr (5 samples, 0.10%)</title><rect x="1045.4" y="229" width="1.2" height="15.0" fill="rgb(251,161,0)" rx="2" ry="2" />
<text  x="1048.41" y="239.5" ></text>
</g>
<g >
<title>runtime.suspendG (1 samples, 0.02%)</title><rect x="1188.8" y="213" width="0.3" height="15.0" fill="rgb(238,199,25)" rx="2" ry="2" />
<text  x="1191.85" y="223.5" ></text>
</g>
<g >
<title>syscall.syscall (7 samples, 0.14%)</title><rect x="1042.9" y="149" width="1.6" height="15.0" fill="rgb(253,22,31)" rx="2" ry="2" />
<text  x="1045.87" y="159.5" ></text>
</g>
<g >
<title>runtime.wakep (1 samples, 0.02%)</title><rect x="1187.5" y="245" width="0.2" height="15.0" fill="rgb(246,152,33)" rx="2" ry="2" />
<text  x="1190.47" y="255.5" ></text>
</g>
<g >
<title>runtime.findRunnable (4 samples, 0.08%)</title><rect x="1186.5" y="245" width="1.0" height="15.0" fill="rgb(246,164,14)" rx="2" ry="2" />
<text  x="1189.55" y="255.5" ></text>
</g>
<g >
<title>runtime.kevent (2 samples, 0.04%)</title><rect x="1189.3" y="229" width="0.5" height="15.0" fill="rgb(226,98,32)" rx="2" ry="2" />
<text  x="1192.31" y="239.5" ></text>
</g>
<g >
<title>runtime.releasem (1 samples, 0.02%)</title><rect x="1045.2" y="197" width="0.2" height="15.0" fill="rgb(207,64,41)" rx="2" ry="2" />
<text  x="1048.18" y="207.5" ></text>
</g>
<g >
<title>runtime.asyncPreempt (1 samples, 0.02%)</title><rect x="1162.8" y="229" width="0.3" height="15.0" fill="rgb(218,87,3)" rx="2" ry="2" />
<text  x="1165.83" y="239.5" ></text>
</g>
<g >
<title>aeshashbody (371 samples, 7.24%)</title><rect x="882.4" y="213" width="85.4" height="15.0" fill="rgb(227,100,31)" rx="2" ry="2" />
<text  x="885.39" y="223.5" >aeshashbody</text>
</g>
<g >
<title>runtime.systemstack (10 samples, 0.20%)</title><rect x="1187.7" y="293" width="2.3" height="15.0" fill="rgb(212,207,2)" rx="2" ry="2" />
<text  x="1190.70" y="303.5" ></text>
</g>
<g >
<title>runtime.(*pageAlloc).update (1 samples, 0.02%)</title><rect x="1047.7" y="37" width="0.2" height="15.0" fill="rgb(233,73,37)" rx="2" ry="2" />
<text  x="1050.71" y="47.5" ></text>
</g>
<g >
<title>runtime.strhash (166 samples, 3.24%)</title><rect x="969.2" y="213" width="38.2" height="15.0" fill="rgb(209,210,7)" rx="2" ry="2" />
<text  x="972.20" y="223.5" >run..</text>
</g>
<g >
<title>runtime.(*mcache).allocLarge (1 samples, 0.02%)</title><rect x="1047.7" y="149" width="0.2" height="15.0" fill="rgb(232,105,7)" rx="2" ry="2" />
<text  x="1050.71" y="159.5" ></text>
</g>
<g >
<title>main.main (5,107 samples, 99.65%)</title><rect x="10.7" y="277" width="1175.8" height="15.0" fill="rgb(245,214,52)" rx="2" ry="2" />
<text  x="13.69" y="287.5" >main.main</text>
</g>
<g >
<title>runtime.osyield (1 samples, 0.02%)</title><rect x="1186.5" y="213" width="0.3" height="15.0" fill="rgb(208,174,47)" rx="2" ry="2" />
<text  x="1189.55" y="223.5" ></text>
</g>
<g >
<title>runtime.signalM (1 samples, 0.02%)</title><rect x="1188.8" y="197" width="0.3" height="15.0" fill="rgb(241,92,1)" rx="2" ry="2" />
<text  x="1191.85" y="207.5" ></text>
</g>
<g >
<title>runtime.tophash (114 samples, 2.22%)</title><rect x="1007.4" y="229" width="26.3" height="15.0" fill="rgb(235,43,40)" rx="2" ry="2" />
<text  x="1010.42" y="239.5" >r..</text>
</g>
<g >
<title>runtime.gcBgMarkWorker.func2 (1 samples, 0.02%)</title><rect x="1188.8" y="277" width="0.3" height="15.0" fill="rgb(226,29,10)" rx="2" ry="2" />
<text  x="1191.85" y="287.5" ></text>
</g>
<g >
<title>runtime.semasleep (2 samples, 0.04%)</title><rect x="1186.8" y="197" width="0.4" height="15.0" fill="rgb(248,39,21)" rx="2" ry="2" />
<text  x="1189.78" y="207.5" ></text>
</g>
<g >
<title>runtime.sysAllocOS (1 samples, 0.02%)</title><rect x="1189.8" y="245" width="0.2" height="15.0" fill="rgb(222,1,26)" rx="2" ry="2" />
<text  x="1192.77" y="255.5" ></text>
</g>
<g >
<title>syscall.write (7 samples, 0.14%)</title><rect x="1042.9" y="165" width="1.6" height="15.0" fill="rgb(242,18,11)" rx="2" ry="2" />
<text  x="1045.87" y="175.5" ></text>
</g>
<g >
<title>runtime.(*hmap).sameSizeGrow (1 samples, 0.02%)</title><rect x="25.7" y="229" width="0.2" height="15.0" fill="rgb(231,119,49)" rx="2" ry="2" />
<text  x="28.66" y="239.5" ></text>
</g>
<g >
<title>os.(*File).write (7 samples, 0.14%)</title><rect x="1042.9" y="197" width="1.6" height="15.0" fill="rgb(246,86,7)" rx="2" ry="2" />
<text  x="1045.87" y="207.5" ></text>
</g>
<g >
<title>runtime.evacuate_faststr (3 samples, 0.06%)</title><rect x="1047.0" y="197" width="0.7" height="15.0" fill="rgb(230,144,6)" rx="2" ry="2" />
<text  x="1050.02" y="207.5" ></text>
</g>
<g >
<title>runtime.gcDrain (1 samples, 0.02%)</title><rect x="1188.8" y="261" width="0.3" height="15.0" fill="rgb(216,92,21)" rx="2" ry="2" />
<text  x="1191.85" y="271.5" ></text>
</g>
<g >
<title>runtime.mapaccess1_faststr (4,164 samples, 81.25%)</title><rect x="48.7" y="229" width="958.7" height="15.0" fill="rgb(210,205,29)" rx="2" ry="2" />
<text  x="51.68" y="239.5" >runtime.mapaccess1_faststr</text>
</g>
<g >
<title>runtime.(*mheap).alloc (1 samples, 0.02%)</title><rect x="1047.7" y="133" width="0.2" height="15.0" fill="rgb(207,185,48)" rx="2" ry="2" />
<text  x="1050.71" y="143.5" ></text>
</g>
<g >
<title>runtime.(*mheap).alloc.func1 (5 samples, 0.10%)</title><rect x="1187.7" y="277" width="1.1" height="15.0" fill="rgb(217,28,7)" rx="2" ry="2" />
<text  x="1190.70" y="287.5" ></text>
</g>
<g >
<title>runtime.markroot.func1 (1 samples, 0.02%)</title><rect x="1188.8" y="229" width="0.3" height="15.0" fill="rgb(242,69,37)" rx="2" ry="2" />
<text  x="1191.85" y="239.5" ></text>
</g>
<g >
<title>runtime.newobject (1 samples, 0.02%)</title><rect x="1047.9" y="213" width="0.3" height="15.0" fill="rgb(215,68,49)" rx="2" ry="2" />
<text  x="1050.94" y="223.5" ></text>
</g>
<g >
<title>runtime.(*bmap).overflow (1 samples, 0.02%)</title><rect x="25.4" y="229" width="0.3" height="15.0" fill="rgb(228,101,37)" rx="2" ry="2" />
<text  x="28.43" y="239.5" ></text>
</g>
<g >
<title>runtime.nextFreeFast (1 samples, 0.02%)</title><rect x="1044.9" y="197" width="0.3" height="15.0" fill="rgb(250,153,21)" rx="2" ry="2" />
<text  x="1047.95" y="207.5" ></text>
</g>
<g >
<title>memeqbody (198 samples, 3.86%)</title><rect x="1117.2" y="229" width="45.6" height="15.0" fill="rgb(206,117,36)" rx="2" ry="2" />
<text  x="1120.24" y="239.5" >meme..</text>
</g>
<g >
<title>runtime.markroot (1 samples, 0.02%)</title><rect x="1188.8" y="245" width="0.3" height="15.0" fill="rgb(211,219,52)" rx="2" ry="2" />
<text  x="1191.85" y="255.5" ></text>
</g>
<g >
<title>runtime.(*mheap).alloc.func1 (1 samples, 0.02%)</title><rect x="1047.7" y="101" width="0.2" height="15.0" fill="rgb(227,180,8)" rx="2" ry="2" />
<text  x="1050.71" y="111.5" ></text>
</g>
<g >
<title>runtime.evacuated (14 samples, 0.27%)</title><rect x="45.5" y="229" width="3.2" height="15.0" fill="rgb(246,52,35)" rx="2" ry="2" />
<text  x="48.46" y="239.5" ></text>
</g>
<g >
<title>runtime.netpoll (2 samples, 0.04%)</title><rect x="1189.3" y="245" width="0.5" height="15.0" fill="rgb(248,164,47)" rx="2" ry="2" />
<text  x="1192.31" y="255.5" ></text>
</g>
<g >
<title>runtime.netpoll (1 samples, 0.02%)</title><rect x="1187.2" y="229" width="0.3" height="15.0" fill="rgb(241,139,6)" rx="2" ry="2" />
<text  x="1190.24" y="239.5" ></text>
</g>
<g >
<title>runtime.park_m (5 samples, 0.10%)</title><rect x="1186.5" y="277" width="1.2" height="15.0" fill="rgb(237,80,13)" rx="2" ry="2" />
<text  x="1189.55" y="287.5" ></text>
</g>
<g >
<title>runtime.memequal (102 samples, 1.99%)</title><rect x="1163.1" y="229" width="23.4" height="15.0" fill="rgb(209,120,11)" rx="2" ry="2" />
<text  x="1166.06" y="239.5" >r..</text>
</g>
<g >
<title>runtime.main (5,107 samples, 99.65%)</title><rect x="10.7" y="293" width="1175.8" height="15.0" fill="rgb(243,187,7)" rx="2" ry="2" />
<text  x="13.69" y="303.5" >runtime.main</text>
</g>
<g >
<title>runtime.gcStart.func2 (2 samples, 0.04%)</title><rect x="1189.3" y="277" width="0.5" height="15.0" fill="rgb(218,89,42)" rx="2" ry="2" />
<text  x="1192.31" y="287.5" ></text>
</g>
<g >
<title>runtime.madvise (5 samples, 0.10%)</title><rect x="1187.7" y="245" width="1.1" height="15.0" fill="rgb(223,64,11)" rx="2" ry="2" />
<text  x="1190.70" y="255.5" ></text>
</g>
<g >
<title>runtime.makeBucketArray (1 samples, 0.02%)</title><rect x="1047.7" y="197" width="0.2" height="15.0" fill="rgb(245,128,7)" rx="2" ry="2" />
<text  x="1050.71" y="207.5" ></text>
</g>
<g >
<title>all (5,125 samples, 100%)</title><rect x="10.0" y="309" width="1180.0" height="15.0" fill="rgb(242,60,19)" rx="2" ry="2" />
<text  x="13.00" y="319.5" ></text>
</g>
<g >
<title>runtime.gcBgMarkWorker.func2 (2 samples, 0.04%)</title><rect x="10.2" y="261" width="0.5" height="15.0" fill="rgb(234,81,21)" rx="2" ry="2" />
<text  x="13.23" y="271.5" ></text>
</g>
<g >
<title>runtime.persistentalloc1 (1 samples, 0.02%)</title><rect x="1189.8" y="261" width="0.2" height="15.0" fill="rgb(231,152,32)" rx="2" ry="2" />
<text  x="1192.77" y="271.5" ></text>
</g>
<g >
<title>main.has (600 samples, 11.71%)</title><rect x="1048.4" y="245" width="138.1" height="15.0" fill="rgb(218,84,7)" rx="2" ry="2" />
<text  x="1051.40" y="255.5" >main.has</text>
</g>
<g >
<title>memeqbody (3 samples, 0.06%)</title><rect x="967.8" y="213" width="0.7" height="15.0" fill="rgb(217,179,9)" rx="2" ry="2" />
<text  x="970.81" y="223.5" ></text>
</g>
<g >
<title>gogo (1 samples, 0.02%)</title><rect x="10.0" y="293" width="0.2" height="15.0" fill="rgb(252,28,16)" rx="2" ry="2" />
<text  x="13.00" y="303.5" ></text>
</g>
<g >
<title>runtime.gcDrain (2 samples, 0.04%)</title><rect x="10.2" y="245" width="0.5" height="15.0" fill="rgb(245,117,37)" rx="2" ry="2" />
<text  x="13.23" y="255.5" ></text>
</g>
<g >
<title>runtime.mallocgc (1 samples, 0.02%)</title><rect x="1047.7" y="165" width="0.2" height="15.0" fill="rgb(217,174,3)" rx="2" ry="2" />
<text  x="1050.71" y="175.5" ></text>
</g>
<g >
<title>runtime.strhash (1 samples, 0.02%)</title><rect x="1048.2" y="213" width="0.2" height="15.0" fill="rgb(252,202,28)" rx="2" ry="2" />
<text  x="1051.17" y="223.5" ></text>
</g>
<g >
<title>runtime.memmove (1 samples, 0.02%)</title><rect x="1047.5" y="165" width="0.2" height="15.0" fill="rgb(209,46,54)" rx="2" ry="2" />
<text  x="1050.48" y="175.5" ></text>
</g>
<g >
<title>runtime.(*mheap).allocSpan (1 samples, 0.02%)</title><rect x="1047.7" y="85" width="0.2" height="15.0" fill="rgb(228,33,6)" rx="2" ry="2" />
<text  x="1050.71" y="95.5" ></text>
</g>
<g >
<title>runtime.forEachP (1 samples, 0.02%)</title><rect x="1189.1" y="261" width="0.2" height="15.0" fill="rgb(216,44,46)" rx="2" ry="2" />
<text  x="1192.08" y="271.5" ></text>
</g>
<g >
<title>runtime.add (85 samples, 1.66%)</title><rect x="25.9" y="229" width="19.6" height="15.0" fill="rgb(246,52,2)" rx="2" ry="2" />
<text  x="28.89" y="239.5" ></text>
</g>
<g >
<title>runtime.heapBitsSetType (1 samples, 0.02%)</title><rect x="1047.9" y="181" width="0.3" height="15.0" fill="rgb(235,70,50)" rx="2" ry="2" />
<text  x="1050.94" y="191.5" ></text>
</g>
<g >
<title>main.partTwo (5,107 samples, 99.65%)</title><rect x="10.7" y="261" width="1175.8" height="15.0" fill="rgb(227,20,16)" rx="2" ry="2" />
<text  x="13.69" y="271.5" >main.partTwo</text>
</g>
<g >
<title>runtime.mapassign_faststr (8 samples, 0.16%)</title><rect x="1046.6" y="229" width="1.8" height="15.0" fill="rgb(245,49,15)" rx="2" ry="2" />
<text  x="1049.56" y="239.5" ></text>
</g>
<g >
<title>runtime.(*pageAlloc).allocRange (1 samples, 0.02%)</title><rect x="1047.7" y="53" width="0.2" height="15.0" fill="rgb(252,110,44)" rx="2" ry="2" />
<text  x="1050.71" y="63.5" ></text>
</g>
<g >
<title>runtime.notesleep (2 samples, 0.04%)</title><rect x="1186.8" y="213" width="0.4" height="15.0" fill="rgb(240,172,18)" rx="2" ry="2" />
<text  x="1189.78" y="223.5" ></text>
</g>
<g >
<title>fmt.Println (7 samples, 0.14%)</title><rect x="1042.9" y="229" width="1.6" height="15.0" fill="rgb(228,22,38)" rx="2" ry="2" />
<text  x="1045.87" y="239.5" ></text>
</g>
<g >
<title>runtime.usleep (1 samples, 0.02%)</title><rect x="1186.5" y="197" width="0.3" height="15.0" fill="rgb(212,1,10)" rx="2" ry="2" />
<text  x="1189.55" y="207.5" ></text>
</g>
<g >
<title>runtime.(*puintptr).set (1 samples, 0.02%)</title><rect x="1187.5" y="229" width="0.2" height="15.0" fill="rgb(205,69,29)" rx="2" ry="2" />
<text  x="1190.47" y="239.5" ></text>
</g>
<g >
<title>runtime.persistentalloc.func1 (1 samples, 0.02%)</title><rect x="1189.8" y="277" width="0.2" height="15.0" fill="rgb(232,74,14)" rx="2" ry="2" />
<text  x="1192.77" y="287.5" ></text>
</g>
<g >
<title>runtime.(*pageAlloc).alloc (1 samples, 0.02%)</title><rect x="1047.7" y="69" width="0.2" height="15.0" fill="rgb(249,142,48)" rx="2" ry="2" />
<text  x="1050.71" y="79.5" ></text>
</g>
<g >
<title>runtime.scanobject (2 samples, 0.04%)</title><rect x="10.2" y="229" width="0.5" height="15.0" fill="rgb(226,106,41)" rx="2" ry="2" />
<text  x="13.23" y="239.5" ></text>
</g>
<g >
<title>runtime.gcBgMarkWorker (2 samples, 0.04%)</title><rect x="10.2" y="293" width="0.5" height="15.0" fill="rgb(248,229,48)" rx="2" ry="2" />
<text  x="13.23" y="303.5" ></text>
</g>
<g >
<title>main.extractMin (4,443 samples, 86.69%)</title><rect x="10.7" y="245" width="1023.0" height="15.0" fill="rgb(217,187,42)" rx="2" ry="2" />
<text  x="13.69" y="255.5" >main.extractMin</text>
</g>
</g>
</svg>
